<mxfile host="app.diagrams.net" modified="2021-07-30T09:02:45.324Z" agent="5.0 (Windows NT 10.0; Win64; x64) AppleWebKit/537.36 (KHTML, like Gecko) Chrome/92.0.4515.107 Safari/537.36 Edg/92.0.902.55" etag="NQ6r595hJRJK2h61alm7" version="14.8.0" type="github">
  <diagram id="_A2b5-9zhrV3hEWDDHfE" name="Page-1">
    <mxGraphModel dx="1422" dy="834" grid="1" gridSize="10" guides="1" tooltips="1" connect="1" arrows="1" fold="1" page="1" pageScale="1" pageWidth="827" pageHeight="1169" math="0" shadow="0">
      <root>
        <mxCell id="0" />
        <mxCell id="1" parent="0" />
        <mxCell id="5hcQbMR9DarPjpxdyrVm-2" value="非分销选仓" style="text;html=1;strokeColor=none;fillColor=none;align=center;verticalAlign=middle;whiteSpace=wrap;rounded=0;" vertex="1" parent="1">
          <mxGeometry x="50" y="40" width="170" height="30" as="geometry" />
        </mxCell>
        <mxCell id="5hcQbMR9DarPjpxdyrVm-6" style="edgeStyle=orthogonalEdgeStyle;rounded=0;orthogonalLoop=1;jettySize=auto;html=1;" edge="1" parent="1" source="5hcQbMR9DarPjpxdyrVm-4" target="5hcQbMR9DarPjpxdyrVm-5">
          <mxGeometry relative="1" as="geometry">
            <Array as="points">
              <mxPoint x="245" y="250" />
              <mxPoint x="245" y="250" />
            </Array>
          </mxGeometry>
        </mxCell>
        <mxCell id="5hcQbMR9DarPjpxdyrVm-7" value="yes" style="edgeLabel;html=1;align=center;verticalAlign=middle;resizable=0;points=[];" vertex="1" connectable="0" parent="5hcQbMR9DarPjpxdyrVm-6">
          <mxGeometry x="-0.3273" y="-4" relative="1" as="geometry">
            <mxPoint as="offset" />
          </mxGeometry>
        </mxCell>
        <mxCell id="5hcQbMR9DarPjpxdyrVm-4" value="配置了店铺指定仓库&lt;br&gt;and&lt;br&gt;数量不小于最低限制" style="rhombus;whiteSpace=wrap;html=1;" vertex="1" parent="1">
          <mxGeometry x="110" y="110" width="270" height="80" as="geometry" />
        </mxCell>
        <mxCell id="5hcQbMR9DarPjpxdyrVm-5" value="设置一个标记&amp;nbsp; P_Locked = 3&amp;nbsp;&amp;nbsp;" style="rounded=0;whiteSpace=wrap;html=1;" vertex="1" parent="1">
          <mxGeometry x="155" y="290" width="180" height="60" as="geometry" />
        </mxCell>
        <mxCell id="5hcQbMR9DarPjpxdyrVm-9" value="设置一个标记&amp;nbsp; P_Locked = 3&amp;nbsp;&amp;nbsp;" style="rounded=0;whiteSpace=wrap;html=1;" vertex="1" parent="1">
          <mxGeometry x="150" y="450" width="180" height="60" as="geometry" />
        </mxCell>
      </root>
    </mxGraphModel>
  </diagram>
</mxfile>
